<?xml version="1.0" encoding="iso-8859-1"?>
<!-- Generator: Adobe Illustrator 18.0.0, SVG Export Plug-In . SVG Version: 6.00 Build 0)  -->
<!DOCTYPE svg PUBLIC "-//W3C//DTD SVG 1.1//EN" "http://www.w3.org/Graphics/SVG/1.1/DTD/svg11.dtd">
<svg version="1.1" id="Capa_1" xmlns="http://www.w3.org/2000/svg" xmlns:xlink="http://www.w3.org/1999/xlink" x="0px" y="0px"
	 viewBox="0 0 58 58" style="enable-background:new 0 0 58 58;" xml:space="preserve">
<g>
	<path style="fill:#FED070;" d="M31.94,0.817L31.94,0.817c1.214,0.732,2.663,0.985,4.057,0.707l0,0
		c2.073-0.414,4.206,0.353,5.525,1.986l0,0c0.887,1.098,2.161,1.825,3.567,2.034l0,0c2.091,0.311,3.83,1.753,4.504,3.733v0
		c0.453,1.332,1.399,2.445,2.648,3.117l0,0c1.857,0.999,2.992,2.941,2.94,5.029v0c-0.035,1.404,0.468,2.77,1.409,3.823l0,0
		c1.399,1.566,1.794,3.775,1.021,5.719v0c-0.52,1.308-0.52,2.761,0,4.069v0c0.773,1.945,0.378,4.153-1.021,5.719l0,0
		c-0.941,1.053-1.444,2.419-1.409,3.823v0c0.053,2.088-1.082,4.03-2.94,5.029l0,0c-1.249,0.672-2.195,1.785-2.648,3.117v0
		c-0.674,1.98-2.413,3.421-4.504,3.733h0c-1.406,0.209-2.681,0.936-3.567,2.034l0,0c-1.319,1.633-3.452,2.4-5.525,1.986l0,0
		c-1.394-0.278-2.843-0.026-4.057,0.707l0,0c-1.805,1.089-4.075,1.089-5.88,0l0,0c-1.214-0.732-2.663-0.985-4.057-0.707l0,0
		c-2.073,0.414-4.206-0.353-5.525-1.986l0,0c-0.887-1.098-2.161-1.825-3.567-2.034h0c-2.091-0.311-3.83-1.753-4.504-3.733l0,0
		c-0.453-1.332-1.399-2.445-2.648-3.117l0,0c-1.857-0.999-2.992-2.941-2.94-5.029l0,0c0.035-1.404-0.468-2.77-1.409-3.823l0,0
		c-1.399-1.566-1.794-3.775-1.021-5.719l0,0c0.52-1.308,0.52-2.761,0-4.069l0,0c-0.773-1.945-0.378-4.153,1.021-5.719l0,0
		c0.941-1.053,1.444-2.419,1.409-3.823l0,0c-0.053-2.088,1.082-4.03,2.94-5.029l0,0c1.249-0.672,2.195-1.785,2.648-3.117l0,0
		c0.674-1.98,2.413-3.421,4.504-3.733l0,0c1.406-0.209,2.681-0.936,3.567-2.034l0,0c1.319-1.633,3.452-2.4,5.525-1.986l0,0
		c1.394,0.278,2.843,0.026,4.057-0.707l0,0C27.865-0.272,30.135-0.272,31.94,0.817z"/>
	<circle style="fill:#FAF8D2;" cx="29" cy="29" r="24"/>
	<circle style="fill:#CD6E61;" cx="21" cy="15" r="5"/>
	<circle style="fill:#CD6E61;" cx="14" cy="32" r="5"/>
	<circle style="fill:#CD6E61;" cx="39" cy="20" r="5"/>
	<circle style="fill:#CD6E61;" cx="26" cy="44" r="5"/>
	<circle style="fill:#CD6E61;" cx="41" cy="37" r="5"/>
	<circle style="fill:#CD6E61;" cx="27.001" cy="27.999" r="5"/>
	<g>
		<circle style="fill:#D79C8C;" cx="20" cy="13" r="1"/>
		<circle style="fill:#D79C8C;" cx="20" cy="17" r="1"/>
		<circle style="fill:#D79C8C;" cx="23" cy="15" r="1"/>
		<circle style="fill:#D79C8C;" cx="13" cy="30" r="1"/>
		<circle style="fill:#D79C8C;" cx="13" cy="34" r="1"/>
		<circle style="fill:#D79C8C;" cx="16" cy="32" r="1"/>
		<circle style="fill:#D79C8C;" cx="38" cy="18" r="1"/>
		<circle style="fill:#D79C8C;" cx="38" cy="22" r="1"/>
		<circle style="fill:#D79C8C;" cx="41" cy="20" r="1"/>
		<circle style="fill:#D79C8C;" cx="24.28" cy="42.572" r="1"/>
		<circle style="fill:#D79C8C;" cx="25.889" cy="46.233" r="1"/>
		<circle style="fill:#D79C8C;" cx="27.831" cy="43.195" r="1"/>
		<circle style="fill:#D79C8C;" cx="42.09" cy="35.048" r="1"/>
		<circle style="fill:#D79C8C;" cx="38.784" cy="37.299" r="1"/>
		<circle style="fill:#D79C8C;" cx="42.126" cy="38.653" r="1"/>
		<circle style="fill:#D79C8C;" cx="26.763" cy="25.775" r="1"/>
		<circle style="fill:#D79C8C;" cx="25.366" cy="29.523" r="1"/>
		<circle style="fill:#D79C8C;" cx="28.875" cy="28.697" r="1"/>
	</g>
	<path style="fill:#88C057;" d="M29,17c-0.552,0-1-0.447-1-1s0.448-1,1-1c1.654,0,3-1.346,3-3c0-0.553,0.448-1,1-1s1,0.447,1,1
		C34,14.757,31.757,17,29,17z"/>
	<path style="fill:#ED3F32;" d="M16.74,24.735c-2.095,0-4.051-1.326-4.749-3.419c-0.175-0.524,0.108-1.091,0.632-1.265
		c0.525-0.175,1.09,0.108,1.265,0.632c0.522,1.569,2.227,2.421,3.795,1.897c0.525-0.171,1.09,0.109,1.265,0.634
		c0.174,0.523-0.109,1.09-0.633,1.265C17.793,24.653,17.263,24.735,16.74,24.735z"/>
	<path style="fill:#88C057;" d="M37.739,45.999c-2.094,0-4.049-1.326-4.747-3.419c-0.175-0.524,0.108-1.091,0.632-1.265
		c0.526-0.176,1.091,0.108,1.265,0.632c0.253,0.761,0.788,1.378,1.504,1.735c0.716,0.358,1.529,0.415,2.291,0.162
		c0.525-0.176,1.09,0.108,1.265,0.632c0.175,0.524-0.108,1.091-0.632,1.265C38.793,45.916,38.262,45.999,37.739,45.999z"/>
	<path style="fill:#88C057;" d="M45.502,30.002c-0.843,0-1.677-0.216-2.434-0.639c-0.482-0.27-0.655-0.879-0.385-1.361
		c0.27-0.481,0.877-0.654,1.361-0.385c0.701,0.393,1.511,0.487,2.281,0.27c0.771-0.219,1.411-0.725,1.802-1.425
		c0.269-0.481,0.877-0.655,1.361-0.385c0.482,0.27,0.655,0.879,0.385,1.361c-0.652,1.166-1.719,2.009-3.003,2.372
		C46.418,29.938,45.959,30.002,45.502,30.002z"/>
	<path style="fill:#ED3F32;" d="M29.502,38.002c-0.843,0-1.677-0.216-2.434-0.639c-0.482-0.27-0.655-0.879-0.385-1.361
		c0.27-0.481,0.878-0.654,1.361-0.385c0.701,0.392,1.512,0.487,2.281,0.27c0.771-0.219,1.411-0.725,1.802-1.425
		c0.269-0.481,0.877-0.653,1.361-0.385c0.482,0.27,0.655,0.879,0.385,1.361c-0.652,1.166-1.719,2.009-3.003,2.372
		C30.418,37.938,29.959,38.002,29.502,38.002z"/>
	<path style="fill:#88C057;" d="M18.619,40.375c-0.396,0-0.77-0.235-0.927-0.625c-0.208-0.512,0.04-1.095,0.551-1.302
		c1.533-0.621,2.275-2.374,1.655-3.907c-0.208-0.512,0.04-1.095,0.551-1.302c0.512-0.207,1.095,0.039,1.302,0.552
		c1.035,2.555-0.202,5.476-2.757,6.511C18.871,40.352,18.744,40.375,18.619,40.375z"/>
	<path style="fill:#ED3F32;" d="M35.789,33c-0.473,0-0.894-0.337-0.982-0.819c-0.242-1.314,0.042-2.644,0.8-3.742
		c0.758-1.1,1.899-1.838,3.213-2.079c0.546-0.102,1.065,0.261,1.164,0.803c0.1,0.543-0.26,1.064-0.803,1.164
		c-0.789,0.146-1.474,0.588-1.928,1.247c-0.455,0.659-0.625,1.457-0.48,2.246c0.1,0.543-0.259,1.064-0.803,1.164
		C35.909,32.995,35.848,33,35.789,33z"/>
</g>
<g>
</g>
<g>
</g>
<g>
</g>
<g>
</g>
<g>
</g>
<g>
</g>
<g>
</g>
<g>
</g>
<g>
</g>
<g>
</g>
<g>
</g>
<g>
</g>
<g>
</g>
<g>
</g>
<g>
</g>
</svg>
