<?xml version="1.0" encoding="iso-8859-1"?>
<!-- Generator: Adobe Illustrator 19.0.0, SVG Export Plug-In . SVG Version: 6.00 Build 0)  -->
<svg version="1.1" id="Capa_1" xmlns="http://www.w3.org/2000/svg" xmlns:xlink="http://www.w3.org/1999/xlink" x="0px" y="0px"
	 viewBox="0 0 409.6 409.6" style="enable-background:new 0 0 409.6 409.6;" xml:space="preserve">
<polygon style="fill:#2F4859;" points="135.424,78.336 66.304,78.336 92.928,0 108.8,0 "/>
<polygon style="fill:#3A556A;" points="100.608,0 92.928,0 66.304,78.336 100.608,78.336 "/>
<path style="fill:#D15241;" d="M164.608,409.6H37.632c-5.632,0-9.728-4.608-9.728-9.728V104.96c0-5.632,4.608-9.728,9.728-9.728
	H165.12c5.632,0,9.728,4.608,9.728,9.728v294.912C174.848,404.992,170.24,409.6,164.608,409.6z"/>
<path style="fill:#E56353;" d="M101.12,94.72H41.216c-7.68,0-13.312,5.632-13.312,12.8V396.8c0,7.168,6.144,12.8,13.312,12.8h60.928
	L101.12,94.72z"/>
<rect x="47.36" y="76.288" style="fill:#F6C358;" width="110.08" height="18.944"/>
<rect x="47.36" y="76.288" style="fill:#FCD462;" width="53.76" height="18.944"/>
<polygon style="fill:#2F4859;" points="342.272,78.336 273.152,78.336 299.264,0 315.648,0 "/>
<polygon style="fill:#3A556A;" points="306.944,0 299.264,0 273.152,78.336 306.944,78.336 "/>
<path style="fill:#F6C358;" d="M371.456,409.6H244.48c-5.632,0-9.728-4.608-9.728-9.728V104.96c0-5.632,4.608-9.728,9.728-9.728
	h127.488c5.632,0,9.728,4.608,9.728,9.728v294.912C381.184,404.992,377.088,409.6,371.456,409.6z"/>
<path style="fill:#FCD462;" d="M307.968,94.72h-59.904c-7.68,0-13.312,5.632-13.312,12.8V396.8c0,7.168,6.144,12.8,13.312,12.8
	h60.928L307.968,94.72z"/>
<rect x="253.696" y="76.288" style="fill:#31978C;" width="110.08" height="18.944"/>
<rect x="253.696" y="76.288" style="fill:#44C4A1;" width="53.76" height="18.944"/>
<g>
	<rect x="27.904" y="192.512" style="fill:#EBF0F3;" width="146.944" height="112.64"/>
	<rect x="234.24" y="192.512" style="fill:#EBF0F3;" width="146.944" height="112.64"/>
</g>
<ellipse style="fill:#E56353;" cx="102.144" cy="254.976" rx="45.056" ry="39.936"/>
<path style="fill:#D15241;" d="M102.144,294.4c25.088,0,45.056-17.92,45.056-39.936c0-22.016-19.968-39.424-45.056-39.424V294.4z"/>
<path style="fill:#FCD462;" d="M97.536,213.504v-10.24h10.752v10.24c0,0,12.288-2.56,19.456,5.12l-15.36,2.048
	c0,0,6.144,5.632,6.144,14.336c0,0-8.704-11.776-15.872-10.752c0,0-14.336,2.56-15.36,8.704c0,0-0.512-9.728,4.096-12.8
	c0,0-10.752-4.096-14.336-1.536C77.056,219.136,85.76,209.92,97.536,213.504z"/>
<g>
	<path style="fill:#EBF0F3;" d="M75.008,278.016c-0.512,0-1.024-0.512-1.536-1.024c-11.776-16.896-8.704-29.696-4.096-37.376
		c0.512-1.024,1.536-1.024,2.56-0.512c1.024,0.512,1.024,1.536,0.512,2.56c-4.096,6.656-6.656,17.92,3.584,33.28
		c0.512,1.024,0.512,2.048-0.512,2.56C76.032,278.016,75.52,278.016,75.008,278.016z"/>
	<circle style="fill:#EBF0F3;" cx="75.008" cy="235.008" r="3.584"/>
</g>
<g>
	<path style="fill:#FCD462;" d="M323.328,225.792l4.608,2.56c0,0-0.512-20.992,12.8-23.552l-5.632-0.512l-0.512-4.608
		C334.592,199.168,320.256,216.576,323.328,225.792z"/>
	<path style="fill:#FCD462;" d="M334.592,250.368l-5.12-2.048c0,0,15.872-13.824,8.704-25.6l4.096,3.584l3.584-3.072
		C346.368,224.256,343.296,246.272,334.592,250.368z"/>
</g>
<path style="fill:#3EA69B;" d="M320.256,253.952c2.048-5.12,7.168-17.92,18.944-12.8c6.144,2.56,11.264,7.68-2.048,26.112
	c-8.192,11.776-13.824,26.112-48.128,30.72c-2.048,0.512-14.848,1.024,0.512-8.192C299.776,284.16,312.576,273.92,320.256,253.952z"
	/>
<path style="fill:#44C4A1;" d="M281.856,296.96c-1.024,0,1.536-3.072,7.68-6.656c10.24-6.144,23.04-16.384,30.72-36.352
	c2.048-5.12,7.168-17.92,18.944-12.8C338.688,241.152,321.792,296.96,281.856,296.96z"/>
<path style="fill:#3EA69B;" d="M304.896,239.616c2.048-6.144,7.168-21.504,20.992-15.872c7.168,3.072,13.312,8.192-1.024,30.72
	c-9.216,13.824-14.336,31.232-53.76,38.912c-2.56,0.512-17.408,2.048,0.512-9.216C283.392,276.48,297.216,263.168,304.896,239.616z"
	/>
<path style="fill:#44C4A1;" d="M263.424,291.84c-1.536,0,2.048-4.096,8.192-8.192c11.776-7.68,26.112-20.48,33.28-44.032
	c2.048-6.144,7.168-21.504,20.992-15.872C325.888,224.256,308.992,289.792,263.424,291.84z"/>
<g>
</g>
<g>
</g>
<g>
</g>
<g>
</g>
<g>
</g>
<g>
</g>
<g>
</g>
<g>
</g>
<g>
</g>
<g>
</g>
<g>
</g>
<g>
</g>
<g>
</g>
<g>
</g>
<g>
</g>
</svg>
