<?xml version="1.0"?>
<svg xmlns="http://www.w3.org/2000/svg" xmlns:xlink="http://www.w3.org/1999/xlink" version="1.1" id="Capa_1" x="0px" y="0px" viewBox="0 0 409.6 409.6" style="enable-background:new 0 0 409.6 409.6;" xml:space="preserve" width="512px" height="512px" class=""><g><circle style="fill:#FCD462" cx="204.8" cy="204.8" r="204.8" data-original="#F6C358" class="active-path" data-old_color="#F6C358"/><path style="fill:#FCD462" d="M0,204.8C0,91.648,91.648,0,204.8,0s204.8,91.648,204.8,204.8H0z" data-original="#FCD462" class=""/><circle style="fill:#FFFFFF" cx="204.8" cy="204.8" r="153.088" data-original="#FFFFFF" class=""/><path style="fill:#FFFFFF" d="M357.888,204.8c0,84.48-68.608,153.088-153.088,153.088S51.712,289.28,51.712,204.8" data-original="#E1E6E9" class="" data-old_color="#E1E6E9"/><path style="fill:#FCD462" d="M185.856,60.928c0,0,48.64,2.048,73.728,71.68L146.432,176.64L185.856,60.928z" data-original="#F6C358" class="active-path" data-old_color="#F6C358"/><path style="fill:#FCD462" d="M146.432,176.128l113.152-44.032c-7.168-19.456-15.872-33.792-25.088-44.032L146.432,176.128z" data-original="#FCD462" class=""/><path style="fill:#DC8744;" d="M179.2,80.896l6.656-19.968c0,0,48.64,2.048,73.728,71.68l-20.992,8.192  C238.592,140.288,226.304,90.112,179.2,80.896z" data-original="#DC8744"/><g>
	<ellipse style="fill:#E56353;" cx="167.461" cy="146.524" rx="6.656" ry="6.656" data-original="#E56353"/>
	<ellipse style="fill:#E56353;" cx="194.348" cy="144.802" rx="6.656" ry="6.656" data-original="#E56353"/>
	<ellipse style="fill:#E56353;" cx="182.876" cy="108.856" rx="6.656" ry="6.656" data-original="#E56353"/>
	<ellipse style="fill:#E56353;" cx="214.09" cy="123.921" rx="6.656" ry="6.656" data-original="#E56353"/>
</g><g>
	<path style="fill:#DC8744;" d="M173.568,160.768c-2.56,4.608-9.728,6.144-15.872,3.072c-1.024-0.512-1.536-2.048-1.024-3.072   c0.512-1.024,2.048-1.536,3.072-1.024c3.584,2.048,8.192,1.536,9.216-1.024c0.512-1.024,2.048-1.536,3.072-1.024   C174.08,158.208,174.592,159.744,173.568,160.768z" data-original="#DC8744"/>
	<path style="fill:#DC8744;" d="M167.424,132.096c1.536-5.12,8.192-7.68,14.848-6.144c1.024,0.512,2.048,1.536,1.536,3.072   c-0.512,1.024-1.536,2.048-3.072,1.536c-4.096-1.024-8.192,0-9.216,2.56c-0.512,1.024-1.536,2.048-3.072,1.536   C167.936,134.656,166.912,133.12,167.424,132.096z" data-original="#DC8744"/>
	<path style="fill:#DC8744;" d="M222.208,139.776c-4.096,3.584-11.264,2.56-15.872-2.56c-1.024-1.024-1.024-2.56,0-3.072   c1.024-1.024,2.56-1.024,3.072,0c3.072,3.072,7.168,4.096,9.216,2.048c1.024-1.024,2.56-1.024,3.072,0   C223.232,137.728,222.72,139.264,222.208,139.776z" data-original="#DC8744"/>
	<path style="fill:#DC8744;" d="M194.048,104.448c2.56-4.608,9.728-5.632,15.872-2.048c1.024,0.512,1.536,2.048,1.024,3.072   s-2.048,1.536-3.072,1.024c-3.584-2.048-8.192-2.048-9.216,0.512c-0.512,1.024-2.048,1.536-3.072,1.024   C193.536,107.008,193.024,105.472,194.048,104.448z" data-original="#DC8744"/>
</g><path style="fill:#FCD462" d="M265.216,272.896c0,0-64-2.048-97.792-92.672l147.456-59.392L265.216,272.896z" data-original="#F6C358" class="active-path" data-old_color="#F6C358"/><path style="fill:#FCD462" d="M315.392,120.832l-147.968,59.392c9.728,25.6,21.504,44.032,33.792,57.856L315.392,120.832z" data-original="#FCD462" class=""/><path style="fill:#DC8744;" d="M273.92,246.784l-8.704,26.112c0,0-64-2.048-97.792-92.672l27.136-10.752  C194.56,169.472,211.968,235.008,273.92,246.784z" data-original="#DC8744"/><g>
	<ellipse style="fill:#E56353;" cx="287.751" cy="160.396" rx="8.704" ry="8.704" data-original="#E56353"/>
	<ellipse style="fill:#E56353;" cx="252.807" cy="162.216" rx="8.704" ry="8.704" data-original="#E56353"/>
	<ellipse style="fill:#E56353;" cx="268.792" cy="209.906" rx="8.704" ry="8.704" data-original="#E56353"/>
	<ellipse style="fill:#E56353;" cx="227.13" cy="190.421" rx="8.704" ry="8.704" data-original="#E56353"/>
</g><g>
	<path style="fill:#DC8744;" d="M279.552,141.312c3.584-6.144,12.8-8.192,20.48-4.096c1.536,1.024,2.048,2.56,1.536,4.096   c-1.024,1.536-2.56,2.048-4.096,1.536c-5.12-2.56-10.752-2.048-12.288,1.536c-1.024,1.536-2.56,2.048-4.096,1.536   C279.552,144.896,279.04,142.848,279.552,141.312z" data-original="#DC8744"/>
	<path style="fill:#DC8744;" d="M288.256,179.2c-2.048,7.168-10.752,10.752-19.456,8.192c-1.536-0.512-2.56-2.048-2.048-3.584   s2.048-2.56,3.584-2.048c5.12,1.536,10.752,0,11.776-3.584c0.512-1.536,2.048-2.56,3.584-2.048   C287.744,175.616,288.768,177.664,288.256,179.2z" data-original="#DC8744"/>
	<path style="fill:#DC8744;" d="M216.576,169.472c5.12-5.12,14.336-3.584,20.992,3.072c1.024,1.024,1.024,3.072,0,4.608   c-1.024,1.536-3.072,1.024-4.608,0c-3.584-4.096-9.216-5.12-12.288-2.56c-1.024,1.024-3.072,1.024-4.608,0   C215.04,172.544,215.552,170.496,216.576,169.472z" data-original="#DC8744"/>
	<path style="fill:#DC8744;" d="M253.952,216.064c-3.584,6.144-12.8,7.68-20.992,3.072c-1.536-1.024-2.048-2.56-1.024-4.096   s2.56-2.048,4.096-1.024c4.608,2.56,10.24,2.56,12.288-1.024c1.024-1.536,2.56-2.048,4.096-1.024   C254.464,212.48,254.976,214.528,253.952,216.064z" data-original="#DC8744"/>
</g><path style="fill:#3EA69B" d="M77.824,273.92c-14.848-23.552-7.68-54.272,15.36-69.12c23.552-14.848,54.272-7.68,69.12,15.36" data-original="#3EA69B" class=""/><path style="fill:#FCD462" d="M83.456,270.336c-12.288-18.944-6.656-49.664,12.288-61.44c18.944-12.288,49.664-4.608,61.952,14.848  " data-original="#FCD462" class=""/><g>
	<path style="fill:#3EA69B" d="M129.024,211.456l-7.68,28.16l24.576-15.36C146.432,224.256,140.8,214.016,129.024,211.456z" data-original="#3EA69B" class=""/>
	<path style="fill:#3EA69B" d="M83.456,239.104l28.672,5.12l-24.576,15.36C87.552,260.096,80.384,250.368,83.456,239.104z" data-original="#3EA69B" class=""/>
	<path style="fill:#3EA69B" d="M97.792,217.088l15.36,24.576l-28.16-8.192C84.992,233.472,87.552,222.208,97.792,217.088z" data-original="#3EA69B" class=""/>
	<path style="fill:#3EA69B" d="M124.416,210.944l-7.68,28.16l-13.312-26.112C103.424,212.992,113.664,207.36,124.416,210.944z" data-original="#3EA69B" class=""/>
	<path style="fill:#3EA69B" d="M189.952,228.864c17.92,20.992,15.36,52.736-6.144,70.656c-20.992,17.92-52.736,15.36-70.656-6.144" data-original="#3EA69B" class=""/>
</g><path style="fill:#FCD462" d="M184.832,233.472c14.848,17.408,13.824,48.128-3.584,62.464  c-17.408,14.848-49.152,11.264-63.488-6.144" data-original="#F6C358" class="active-path" data-old_color="#F6C358"/><g>
	<path style="fill:#3EA69B" d="M147.456,297.472l3.584-28.672l-22.528,18.944C128.512,287.232,135.68,296.448,147.456,297.472z" data-original="#3EA69B" class=""/>
	<path style="fill:#3EA69B" d="M188.928,263.68l-29.184-1.024l22.528-18.944C182.272,244.224,189.952,252.416,188.928,263.68z" data-original="#3EA69B" class=""/>
	<path style="fill:#3EA69B" d="M177.664,288.256l-18.432-22.528l28.672,4.096C188.416,269.824,187.392,281.088,177.664,288.256z" data-original="#3EA69B" class=""/>
	<path style="fill:#3EA69B" d="M152.064,297.472l4.096-28.672l16.384,24.064C172.544,292.352,163.328,299.52,152.064,297.472z" data-original="#3EA69B" class=""/>
</g></g> </svg>
