<?xml version="1.0" encoding="iso-8859-1"?>
<!-- Generator: Adobe Illustrator 19.0.0, SVG Export Plug-In . SVG Version: 6.00 Build 0)  -->
<svg version="1.1" id="Capa_1" xmlns="http://www.w3.org/2000/svg" xmlns:xlink="http://www.w3.org/1999/xlink" x="0px" y="0px"
	 viewBox="0 0 411.6 411.6" style="enable-background:new 0 0 411.6 411.6;" xml:space="preserve">
<polygon style="fill:#EBF0F3;" points="291,229.85 284.4,227.55 333.4,88.75 407.6,37.45 411.6,43.15 339.3,93.25 "/>
<path style="fill:#D15241;" d="M367.6,361.35H300c-7.7,0-14.8-6.7-15.4-14.8l-15.3-174.7c-1-14.3,6.7-26.6,17.4-26.6h94.2
	c10.8,0,18.9,12.3,17.4,26.6l-15.4,174.6C382.4,354.65,375.8,361.35,367.6,361.35z"/>
<path style="fill:#E56353;" d="M336.3,361.35h-36.4c-7.7,0-14.8-6.7-15.4-14.8l-15.2-174.7c-1-14.3,6.7-26.6,17.4-26.6h49.6V361.35z
	"/>
<path style="fill:#DC8744;" d="M400.3,159.55H266.2c-5.1,0-9.2-4.1-9.2-9.2v-20c0-5.1,4.1-9.2,9.2-9.2h134.1c5.1,0,9.2,4.1,9.2,9.2
	v20C409.6,155.45,405.5,159.55,400.3,159.55z"/>
<polygon style="fill:#44C4A1;" points="278.5,271.15 274.9,237.45 392.7,237.45 389.6,271.15 "/>
<circle style="fill:#EBF0F3;" cx="333.8" cy="254.35" r="46.1"/>
<rect x="97.8" y="265.55" style="fill:#D15241;" width="249.3" height="13.3"/>
<path style="fill:#DC8744;" d="M357.9,315.25H90.1c-5.6,0-9.7-4.6-9.7-9.7v-16.9c0-5.6,4.6-9.7,9.7-9.7h267.8c5.6,0,9.7,4.6,9.7,9.7
	v16.9C367.6,310.65,363.5,315.25,357.9,315.25z"/>
<path style="fill:#FCD462;" d="M331.2,374.15H110c-13.3,0-24.1-10.8-24.1-24.1v-20.5h268.8v20.5
	C354.8,363.35,344.5,374.15,331.2,374.15z"/>
<path style="fill:#F6C358;" d="M220.6,329.55H86v8.7c0,20,15.9,35.8,35.8,35.8h98.8V329.55z"/>
<g>
	<path style="fill:#44C4A1;" d="M322,329.55c0,4.6,5.6,8.7,12.3,8.7c6.7,0,12.3-4.1,12.3-8.7"/>
	<path style="fill:#44C4A1;" d="M296.9,329.55c0,4.6,5.6,8.7,12.3,8.7s12.3-4.1,12.3-8.7"/>
	<path style="fill:#44C4A1;" d="M272.3,329.55c0,4.6,5.6,8.7,12.3,8.7c6.7,0,12.3-4.1,12.3-8.7"/>
	<path style="fill:#44C4A1;" d="M247.3,329.55c0,4.6,5.6,8.7,12.3,8.7c6.7,0,12.3-4.1,12.3-8.7"/>
	<path style="fill:#44C4A1;" d="M222.7,329.55c0,4.6,5.6,8.7,12.3,8.7s12.3-4.1,12.3-8.7"/>
	<path style="fill:#44C4A1;" d="M197.6,329.55c0,4.6,5.6,8.7,12.3,8.7s12.3-4.1,12.3-8.7"/>
	<path style="fill:#44C4A1;" d="M172.5,329.55c0,4.6,5.6,8.7,12.3,8.7s12.3-4.1,12.3-8.7"/>
	<path style="fill:#44C4A1;" d="M147.9,329.55c0,4.6,5.6,8.7,12.3,8.7s12.3-4.1,12.3-8.7"/>
	<path style="fill:#44C4A1;" d="M122.3,329.55c0,4.6,5.6,8.7,12.3,8.7s12.3-4.1,12.3-8.7"/>
	<path style="fill:#44C4A1;" d="M97.8,329.55c0,4.6,5.6,8.7,12.3,8.7c6.7,0,12.3-4.1,12.3-8.7"/>
	<rect x="97.8" y="315.25" style="fill:#44C4A1;" width="249.3" height="15.4"/>
</g>
<path style="fill:#FCD462;" d="M354.8,265.55c0-60.4-59.4-109.6-132.6-109.6s-132.6,49.2-132.6,109.6H354.8z"/>
<path style="fill:#F6C358;" d="M222.2,265.55H89.6c0-60.9,59.4-110.1,132.6-110.1L222.2,265.55L222.2,265.55z"/>
<path style="fill:#EBF0F3;" d="M0,183.65c0-41.5,33.3-75.3,77.8-75.3s80.4,33.8,80.4,75.3"/>
<rect x="75.772" y="187.84" transform="matrix(0.2069 -0.9784 0.9784 0.2069 -78.5176 297.7235)" style="fill:#FCD462;" width="137.205" height="18.901"/>
<rect x="52.683" y="174.484" transform="matrix(0.2069 -0.9784 0.9784 0.2069 -83.7625 264.5407)" style="fill:#F6C358;" width="137.205" height="18.901"/>
<rect x="28.745" y="183.1" transform="matrix(0.2069 -0.9784 0.9784 0.2069 -111.177 247.9549)" style="fill:#FCD462;" width="137.205" height="18.901"/>
<rect x="13.902" y="160.6" transform="matrix(0.0541 -0.9985 0.9985 0.0541 -91.7627 243.234)" style="fill:#F6C358;" width="137.195" height="18.899"/>
<rect x="-7.745" y="174.461" transform="matrix(0.0541 -0.9985 0.9985 0.0541 -126.0792 234.7303)" style="fill:#FCD462;" width="137.195" height="18.899"/>
<rect x="31.758" y="110.427" transform="matrix(0.9993 -0.0364 0.0364 0.9993 -6.4947 1.6201)" style="fill:#F6C358;" width="18.899" height="137.195"/>
<rect x="11.297" y="125.32" transform="matrix(0.9993 -0.0364 0.0364 0.9993 -7.0509 0.8846)" style="fill:#FCD462;" width="18.899" height="137.195"/>
<polygon style="fill:#2D93BA;" points="135.1,373.55 23,373.55 0,183.65 158.2,183.65 "/>
<polygon style="fill:#27A2DB;" points="79.3,373.55 23,373.55 0,183.65 79.3,183.65 "/>
<g>
</g>
<g>
</g>
<g>
</g>
<g>
</g>
<g>
</g>
<g>
</g>
<g>
</g>
<g>
</g>
<g>
</g>
<g>
</g>
<g>
</g>
<g>
</g>
<g>
</g>
<g>
</g>
<g>
</g>
</svg>
